Coordinates
version=1
nRows=13
nColumns=36
inDegrees=yes

Units are S.I. units (second, meters, Newtons, ...)
If the header above contains a line with 'inDegrees', this indicates whether rotational values are in degrees (yes) or radians (no).

endheader
time	pelvis_tilt	pelvis_list	pelvis_rotation	pelvis_tx	pelvis_ty	pelvis_tz	hip_flexion_r	hip_adduction_r	hip_rotation_r	knee_angle_r	knee_angle_r_beta	ankle_angle_r	subtalar_angle_r	mtp_angle_r	hip_flexion_l	hip_adduction_l	hip_rotation_l	knee_angle_l	knee_angle_l_beta	ankle_angle_l	subtalar_angle_l	mtp_angle_l	lumbar_extension	lumbar_bending	lumbar_rotation	arm_flex_r	arm_add_r	arm_rot_r	elbow_flex_r	pro_sup_r	arm_flex_l	arm_add_l	arm_rot_l	elbow_flex_l	pro_sup_l
      8.08333330	    -21.30552687	     -1.66112567	     -2.02445119	     -0.25501131	      0.78093933	      0.10495123	     71.83083181	     -2.26390557	      0.90913671	     71.62030915	      1.25001021	     28.98978245	     -7.00707625	     -7.49999987	     73.04061627	     -9.85057600	      0.41796750	     73.41224235	      1.28128534	     25.11559028	    -12.72038866	     -7.49999987	    -17.67741104	      2.60778853	      2.63408718	     63.03927982	      9.85703394	     65.24196808	    121.85820562	     86.28814755	     73.95103424	     10.29126892	     69.98571576	    123.55932079	     67.18501177
      8.10000000	    -21.24722833	     -1.61187708	     -1.59518141	     -0.25883343	      0.77144800	      0.10438694	     73.23917829	     -2.63426244	      1.06842729	     73.86396668	      1.28916942	     28.90552197	     -7.34114983	     -7.49999987	     74.37700905	     -9.31026572	      0.94253756	     75.41695043	      1.31627410	     25.46368018	    -12.63359561	     -7.49999987	    -19.34506262	      2.54058902	      2.58369830	     63.89514074	      9.63316497	     64.98565385	    122.06330038	     85.59528712	     74.99421064	     10.51183885	     69.85194370	    123.55839457	     67.24113619
      8.11666670	    -21.18005015	     -1.52381188	     -1.11901525	     -0.25890126	      0.76174315	      0.10431372	     74.34713393	     -3.14300805	      1.11743301	     75.83697737	      1.32360495	     29.10394385	     -7.50016895	     -7.49999987	     75.46161646	     -8.75997277	      1.29071545	     77.15170528	      1.34655128	     26.44975001	    -12.16711485	     -7.49999987	    -20.68379556	      2.44966186	      2.52005606	     64.08741284	      9.35368918	     65.01773250	    122.56305716	     85.42244166	     75.76468255	     10.78064686	     70.04580140	    123.41025825	     67.94942689
      8.13333330	    -20.99665311	     -1.48407951	     -0.83196877	     -0.25833530	      0.75234243	      0.10445954	     75.23351092	     -3.50091096	      1.15578393	     77.65020634	      1.35525177	     30.01091937	     -7.21865488	     -7.49999987	     76.32075989	     -8.36466212	      1.66288435	     78.81091558	      1.37550996	     27.41949746	    -11.90392138	     -7.49999987	    -22.12916969	      2.45520054	      2.57327959	     64.16818366	      9.18203373	     64.81871078	    122.89911103	     90.01950808	     76.34756999	     10.90691530	     69.91575014	    123.31303834	     71.58355355
      8.15000000	    -21.23621802	     -1.36173804	     -0.46550242	     -0.25862543	      0.74103499	      0.10547934	     76.61043162	     -3.91980494	      1.29116025	     79.68103369	      1.39069639	     31.21382664	     -6.50547853	     -7.49999987	     77.79616166	     -7.95335233	      2.07752810	     80.64311114	      1.40748781	     28.09868519	    -11.79389846	     -7.49999987	    -23.07557883	      2.32268031	      2.58368604	     64.06151857	      9.09719863	     65.38224345	    123.50507409	     89.68639997	     76.70895463	     11.20765207	     70.43568958	    123.56011137	     72.01172010
      8.16666670	    -21.21025582	     -1.29101390	     -0.38888044	     -0.25668197	      0.73344381	      0.10548661	     77.50870951	     -4.12946553	      1.39294358	     81.34190910	      1.41968413	     32.41784186	     -5.75584856	     -7.49999987	     78.74939477	     -7.85495352	      2.36435564	     82.37670450	      1.43774472	     28.49060921	    -11.66701513	     -7.49999987	    -24.10770187	      2.32202134	      2.56844653	     64.02956982	      9.12084820	     65.73373803	    123.73698489	     90.00876866	     76.93207719	     10.99834275	     70.50254722	    123.88217184	     72.30690873
      8.18333330	    -21.37018020	     -1.22188213	     -0.13117674	     -0.25670936	      0.72693455	      0.10594456	     78.48461737	     -4.39444745	      1.50892372	     82.68602616	      1.44314340	     33.40016562	     -5.37019533	     -7.49999987	     79.75063045	     -7.62806227	      2.49418539	     83.59269858	      1.45896782	     28.93168373	    -11.66549317	     -7.49999987	    -25.24739677	      2.29228609	      2.71176382	     64.32972282	      9.09029684	     66.00986460	    123.85562393	     89.57182075	     77.29929615	     11.24386792	     70.97378853	    124.16619041	     72.17778174
      8.20000000	    -21.29340071	     -1.16221270	     -0.11666810	     -0.25541341	      0.71488388	      0.10778199	     79.48170407	     -4.54497299	      1.56382211	     84.43101590	      1.47359922	     34.03260780	     -5.29480788	     -7.49999987	     80.70319581	     -7.70525249	      2.70874439	     85.14936610	      1.48613679	     29.40478112	    -11.88522930	     -7.49999987	    -26.25079326	      2.19638123	      2.90749435	     64.34159051	      9.11776318	     66.21553564	    124.28047564	     90.19567433	     77.33106987	     11.14325929	     71.17184978	    124.55609965	     72.44039146
      8.21666670	    -21.74933289	     -0.98152372	     -0.14097420	     -0.25440321	      0.70932417	      0.10852800	     80.71098639	     -4.57240033	      1.83641808	     85.88605596	      1.49899446	     35.03998083	     -4.45754896	     -7.49999987	     81.89805350	     -7.75165655	      2.82009783	     86.50310082	      1.50976392	     29.93235686	    -11.48163583	     -7.49999987	    -26.85304985	      1.84966237	      2.98723383	     64.72893780	      9.26336005	     66.92275158	    124.19258738	     90.28022240	     77.77767064	     11.37517064	     72.03785977	    124.42749327	     72.69856557
      8.23333330	    -21.74577148	     -0.81318989	     -0.42642220	     -0.26981349	      0.69833863	      0.10735997	     82.31979031	     -4.43028780	      2.16411973	     87.41781583	      1.52572871	     35.40627869	     -4.42634503	     -7.49999987	     83.41907017	     -7.78284045	      2.90049051	     87.98986696	      1.53571289	     30.04134780	    -11.90372008	     -7.49999987	    -27.99348204	      1.58183034	      3.07729904	     65.95623466	      9.46606196	     66.38534817	    124.07581863	     90.34827658	     78.99974871	     11.29538785	     71.60938606	    124.28415046	     72.81180096
      8.25000000	    -21.82405590	     -0.53088377	     -0.58185930	     -0.27100810	      0.69075692	      0.10588484	     84.00549972	     -4.51080280	      2.61697896	     88.99022943	      1.55317251	     35.94740452	     -3.65585449	     -7.49999987	     84.67467975	     -7.54466868	      2.87723294	     89.21565586	      1.55710694	     29.94657811	    -12.54062685	     -7.49999987	    -29.15342590	      1.25508410	      2.93591594	     67.46285438	      9.62676002	     65.92907315	    123.98504031	     90.66370158	     80.27550184	     11.22375095	     71.32526357	    124.26512402	     73.49557815
      8.26666670	    -22.21068743	     -0.42790877	     -0.63889493	     -0.27048101	      0.68242639	      0.10635084	     85.59818301	     -4.48914608	      2.94568330	     90.31084716	      1.57622163	     36.11651545	     -3.64042380	     -7.49999987	     86.10476262	     -7.44545169	      2.99822635	     90.49624170	      1.57945738	     30.34510721	    -12.67895376	     -7.49999987	    -29.82138491	      1.14707840	      3.09236994	     68.95911613	      9.61421121	     65.53657567	    123.80515241	     90.71211576	     81.11982102	     11.29790891	     71.00364519	    124.18122528	     73.60406523
      8.28333330	    -22.33379463	     -0.37724310	     -0.73619803	     -0.26203345	      0.67256538	      0.10740301	     86.69088826	     -4.45003218	      3.11761813	     91.92312574	      1.60436120	     36.55823924	     -3.68192565	     -7.49999987	     87.14539413	     -7.60081279	      3.16625226	     92.27329266	      1.61047277	     30.52341520	    -12.86643813	     -7.49999987	    -30.19599149	      1.03712711	      3.22806085	     69.76708040	      9.49600410	     65.64015763	    123.73827075	     90.86358838	     81.35635933	     11.33636625	     70.98851883	    124.13177002	     73.85306429
